{"title":"X Men Last Stand(2006)MP-4[DaScubaDude]","uid":12359351,"size":1045963731,"categoryP":"video","categoryS":"movies","magnet":"?xt=urn:btih:187410ff8d99fb2e09dd1389f3c1a70b30580148&amp;dn=X+Men+Last+Stand%282006%29MP-4%5BDaScubaDude%5D&amp;tr=udp%3A%2F%2Ftracker.openbittorrent.com%3A80&amp;tr=udp%3A%2F%2Fopen.demonii.com%3A1337&amp;tr=udp%3A%2F%2Ftracker.coppersurfer.tk%3A6969&amp;tr=udp%3A%2F%2Fexodus.desync.com%3A6969","seeders":2,"leechers":1,"uploader":"dascuba","files":1,"time":1441512727,"description":"X-Men: The Last Stand (2006)\nPG-13  |  104 min  |  Action, Adventure, Sci-Fi  |  26 May 2006 (USA)\n6.8 Your rating:   -/10   Ratings: 6.8/10 from 344,836 users   Metascore: 58/100 \nReviews: 1,897 user | 328 critic | 38 from Metacritic.com\nWhen a cure is found to treat mutations, lines are drawn amongst the X-Men, led by Professor Charles Xavier, and the Brotherhood, a band of powerful mutants organized under Xavier's former ally, Magneto.\n\nDirector: Brett Ratner\nWriters: Simon Kinberg, Zak Penn\nStars: Patrick Stewart, Hugh Jackman, Halle Berry \n\nGeneral\nComplete name                          : C:X Men Last StandX Men Last Stand.mp4\nFormat                                   : MPEG-4\nFormat profile                           : Base Media\nCodec ID                                 : isom\nFile size                                : 998 MiB\nDuration                                 : 1h 44mn\nOverall bit rate                         : 1 341 Kbps\nMovie name                               : STANFORD_BRIDGE\nGenre                                    : Fantasy\nWriting application                      : Lavf54.6.100\n\nVideo\nID                                       : 1\nFormat                                   : AVC\nFormat/Info                              : Advanced Video Codec\nFormat profile                           : Baseline@L3\nFormat settings, CABAC                   : No\nFormat settings, ReFrames                : 6 frames\nCodec ID                                 : avc1\nCodec ID/Info                            : Advanced Video Coding\nDuration                                 : 1h 44mn\nBit rate                                 : 1 206 Kbps\nWidth                                    : 720 pixels\nHeight                                   : 404 pixels\nDisplay aspect ratio                     : 16:9\nFrame rate mode                          : Constant\nFrame rate                               : 29.970 fps\nColor space                              : YUV\nChroma subsampling                       : 4:2:0\nBit depth                                : 8 bits\nScan type                                : Progressive\nBits/(Pixel*Frame)                       : 0.138\nStream size                              : 897 MiB (90%)\n\nAudio\nID                                       : 2\nFormat                                   : AAC\nFormat/Info                              : Advanced Audio Codec\nFormat profile                           : LC\nCodec ID                                 : 40\nDuration                                 : 1h 44mn\nBit rate mode                            : Constant\nBit rate                                 : 128 Kbps\nChannel(s)                               : 2 channels\nChannel positions                        : Front: L R\nSampling rate                            : 44.1 KHz\nCompression mode                         : Lossy\nStream size                              : 95.2 MiB (10%)","torrent":{"xt":"urn:btih:187410ff8d99fb2e09dd1389f3c1a70b30580148","amp;dn":"X+Men+Last+Stand%282006%29MP-4%5BDaScubaDude%5D","amp;tr":["udp%3A%2F%2Ftracker.openbittorrent.com%3A80","udp%3A%2F%2Fopen.demonii.com%3A1337","udp%3A%2F%2Ftracker.coppersurfer.tk%3A6969","udp%3A%2F%2Fexodus.desync.com%3A6969"],"infoHash":"187410ff8d99fb2e09dd1389f3c1a70b30580148","infoHashBuffer":{"type":"Buffer","data":[24,116,16,255,141,153,251,46,9,221,19,137,243,193,167,11,48,88,1,72]},"announce":[],"urlList":[]}}